<svg xmlns="http://www.w3.org/2000/svg" height="60px" viewBox="0 -960 960 960" width="60px" fill="#000000"><path d="M100-180v-75.38h80v-462.05q0-25.61 18.48-44.09Q216.96-780 242.57-780H820v50.26H242.57q-5.39 0-8.85 3.46t-3.46 8.85v462.05h229.61V-180H100Zm476.79 0q-13.29 0-22.28-8.99-9-9-9-22.29v-409.23q0-13.3 9-22.29 8.99-8.99 22.28-8.99H829.1q13.3 0 22.29 8.99 8.99 8.99 8.99 22.29v409.23q0 13.29-8.99 22.29Q842.4-180 829.1-180H576.79Zm18.98-75.38h214.36v-346.16H595.77v346.16Zm0 0h214.36-214.36Z"/></svg>